<svg xmlns="http://www.w3.org/2000/svg" xmlns:xlink="http://www.w3.org/1999/xlink" viewBox="0 0 206.51 140.94"><defs><style>.cls-1,.cls-2,.cls-3,.cls-4,.cls-5{fill:none;stroke-miterlimit:10;}.cls-1,.cls-2{stroke:#2a2829;}.cls-1,.cls-3,.cls-4,.cls-5{stroke-width:0.5px;}.cls-3{stroke:url(#linear-gradient);}.cls-4{stroke:url(#linear-gradient-2);}.cls-5{stroke:url(#linear-gradient-3);}</style><linearGradient id="linear-gradient" x1="147.26" y1="142.51" x2="147.26" y2="134.7" gradientUnits="userSpaceOnUse"><stop offset="0" stop-color="#fff"/><stop offset="0.02" stop-color="#e4e4e4"/><stop offset="0.07" stop-color="#b9b8b8"/><stop offset="0.11" stop-color="#929192"/><stop offset="0.16" stop-color="#727171"/><stop offset="0.22" stop-color="#585657"/><stop offset="0.28" stop-color="#434142"/><stop offset="0.34" stop-color="#353334"/><stop offset="0.42" stop-color="#2d2b2c"/><stop offset="0.55" stop-color="#2a2829"/><stop offset="0.56" stop-color="#252324"/><stop offset="0.61" stop-color="#141314"/><stop offset="0.67" stop-color="#090808"/><stop offset="0.76" stop-color="#020202"/><stop offset="1"/></linearGradient><linearGradient id="linear-gradient-2" x1="172.17" y1="142.68" x2="172.17" y2="134.53" gradientUnits="userSpaceOnUse"><stop offset="0" stop-color="#fff"/><stop offset="0.02" stop-color="#e8e8e8"/><stop offset="0.07" stop-color="#bcbbbc"/><stop offset="0.12" stop-color="#959494"/><stop offset="0.17" stop-color="#747273"/><stop offset="0.22" stop-color="#595758"/><stop offset="0.28" stop-color="#444243"/><stop offset="0.35" stop-color="#353334"/><stop offset="0.43" stop-color="#2d2b2c"/><stop offset="0.55" stop-color="#2a2829"/><stop offset="0.56" stop-color="#252324"/><stop offset="0.61" stop-color="#141314"/><stop offset="0.67" stop-color="#090808"/><stop offset="0.76" stop-color="#020202"/><stop offset="1"/></linearGradient><linearGradient id="linear-gradient-3" x1="159.66" y1="142.65" x2="159.66" y2="138.65" xlink:href="#linear-gradient"/></defs><g id="FED3_Outline" data-name="FED3 Outline"><circle class="cls-1" cx="161.75" cy="87.03" r="11.33"/><circle class="cls-1" cx="161.66" cy="87.7" r="19.21"/><ellipse class="cls-1" cx="48.42" cy="87.7" rx="19.6" ry="19.21"/><circle class="cls-1" cx="48.42" cy="87.7" r="11.33"/><path class="cls-2" d="M57.86,78.28c1.23-1.48,4.36-2.57,7.19-3s179.75-.51,182.64,0c2.69.47,5.55.69,7.95,2.81a12.79,12.79,0,0,1,4.11,5.61c.92,2.06.19,79.31-.14,83.32-.24,2.9-.91,4.08-2.09,5.41-2,2.24-3,2.71-6.59,4s-181.47.09-183.75.07c-3.05,0-6,0-7.94-1.31s-4.25-2.65-4.4-5.73c-.13-2.72-.26-83,0-84.81A12.86,12.86,0,0,1,57.86,78.28Z" transform="translate(-54.19 -36.56)"/><path class="cls-2" d="M133.14,75c.17-4.27,1.87-13.71,0-15.5s-2.55-1.62-2.38-3.92-.11-9.1,0-10.21c.07-.84,4-3.13,7.18-4.25a62.94,62.94,0,0,1,9.87-2.22c3.77-.57,8.76-1.59,13.27-1.7s12.59-.08,15.49,0c3.49.1,11.15-.12,13.45-.11,2,0,12.68.88,15.49,1.13s8.61.73,10.37,1.19,6.16,1.76,7.84,2.22c1.44.38,4.85,1.27,5.11,2.21a13.67,13.67,0,0,1-.3,4.47c-.19.21.81,2.42.89,2.89a23.09,23.09,0,0,1,0,4.09c-.14,1-1.48,2.87-1.61,3.57s-.94,15.69-.3,16.12" transform="translate(-54.19 -36.56)"/><path class="cls-1" d="M140.88,75a62,62,0,0,1,6.56-6.29c1-.68,5.36-3.11,6.72-3.83a58,58,0,0,1,6.55-2.89c1.32-.39,7.2-2.13,8.94-2.47s7.19-1,8.6-1.11,6.17,0,7.4,0,7.28.68,8.85.85A62,62,0,0,1,202.16,61c1.23.43,4.68,1.53,5.79,2s5.57,3,6.3,3.58,4.38,3.15,5,3.83,4.59,4.5,4.59,4.5" transform="translate(-54.19 -36.56)"/><rect class="cls-1" x="56.99" y="113.63" width="96.51" height="12.94"/><ellipse class="cls-1" cx="198.31" cy="156.66" rx="2.36" ry="2.98" transform="translate(-57 -32.93) rotate(-1.04)"/><ellipse class="cls-1" cx="187.21" cy="156.66" rx="2.36" ry="2.98" transform="translate(-57 -33.13) rotate(-1.04)"/><ellipse class="cls-1" cx="176.1" cy="156.66" rx="2.36" ry="2.98" transform="translate(-57 -33.33) rotate(-1.04)"/><ellipse class="cls-1" cx="164.99" cy="156.66" rx="2.36" ry="2.98" transform="translate(-57 -33.54) rotate(-1.04)"/><ellipse class="cls-1" cx="153.88" cy="156.66" rx="2.36" ry="2.98" transform="translate(-57.01 -33.74) rotate(-1.04)"/><ellipse class="cls-1" cx="142.78" cy="156.66" rx="2.36" ry="2.98" transform="translate(-57.01 -33.94) rotate(-1.04)"/><ellipse class="cls-1" cx="131.67" cy="156.66" rx="2.36" ry="2.98" transform="translate(-57.01 -34.14) rotate(-1.04)"/><ellipse class="cls-1" cx="120.56" cy="156.66" rx="2.36" ry="2.98" transform="translate(-57.01 -34.34) rotate(-1.04)"/><path class="cls-1" d="M146.42,118.87a24.09,24.09,0,0,1,1.78-3.7,17.94,17.94,0,0,1,2.34-2.51c.56-.34,2.07-1.43,2.64-1.66s2.09-.66,2.81-.89a14.64,14.64,0,0,1,2.89-.39c.39,0,2.3.17,3.37.34a13.64,13.64,0,0,1,2.8.81c.54.24,2,1,2.47,1.32a18.42,18.42,0,0,1,2,1.83,13.27,13.27,0,0,1,1.2,1.49,22.23,22.23,0,0,1,1,3.36c0,.36-8.81,1-9.07.64a4.24,4.24,0,0,0-.89-1.19,2.3,2.3,0,0,0-1.46-.59,6.93,6.93,0,0,0-1.76,0,2.7,2.7,0,0,0-1.55.7,3.88,3.88,0,0,1-1.06,1.23c-.51.32-8.73,0-8.73,0Z" transform="translate(-54.19 -36.56)"/><path class="cls-1" d="M146.42,118.87s-6.6.22-7.11.19-.45,13.33-.51,14.45.51,10.72.51,10.72,40,0,40.6,0,1.18-11.36,1.14-11.93-.41-11.43-.41-12.07-1.28-1-1.82-1.14a6.25,6.25,0,0,0-1.09,0,2.61,2.61,0,0,1-.68,0c-.31-.06-4.46-.17-4.89-.17" transform="translate(-54.19 -36.56)"/><rect class="cls-1" x="115.04" y="83.46" width="7.83" height="9.74"/><rect class="cls-1" x="88.27" y="83.46" width="7.79" height="9.74"/><path class="cls-1" d="M142,119.77c0,.66-.72,9.41-.12,9.84s10.81,1,11,.45.25-1.14.74-1.19,5.62.09,6.23.09,5.92-.13,6.41,0,.32,1.21.72,1.15,11.11.23,11.24-.09a26.09,26.09,0,0,0,0-4.13c-.09-1.38-1-5.56-1-6" transform="translate(-54.19 -36.56)"/><path class="cls-3" d="M142.14,142.49c-.1-1.1-.69-7.23-.36-7.32s11-.36,11-.13,0,7,0,7.24" transform="translate(-54.19 -36.56)"/><path class="cls-4" d="M166.66,142.49c0-.78-.32-7.52.13-7.54s11-.36,11,0-.71,7.48-.75,7.69" transform="translate(-54.19 -36.56)"/><path class="cls-5" d="M158.63,142.64c0-.55-.43-3.6,0-3.6s1.93-.32,2,0,.3,3.15.25,3.45" transform="translate(-54.19 -36.56)"/><path class="cls-1" d="M130.64,50.11c1.9-.77,7.18-3.54,8.29-3.83s9.44-1.32,11.66-1.71,9.83-.93,11.15-1,14.17-.63,15.31-.59,12.13-.09,14,0,10.21.51,12.17.59,11.36,1.24,12.6,1.45,12.72,3.28,12.72,3.28" transform="translate(-54.19 -36.56)"/><path class="cls-1" d="M130.76,55.55a7.92,7.92,0,0,1,3.57-2c1.2-.31,5.41-.89,8.51-1.28s11.53-.89,13.7-.85,8.85-.42,10.73-.42,10.14,0,12.3,0,11.7,0,13.14,0,8.6.34,10.39.42,7.32.39,9.36.43,8.72.47,10.21.76,6,1.28,6.81,2" transform="translate(-54.19 -36.56)"/><path class="cls-1" d="M133.27,73.15c1.83-1.68,5.59-5.64,8.41-7.3a104.41,104.41,0,0,1,14.1-6.51c1.85-.57,8.55-1.72,10.08-2s7.79-1.17,9.45-1.29,7.08-.54,9.57-.46,8.17.66,10.09,1,6.28,1.23,8.42,1.76a79.74,79.74,0,0,1,9.45,2.84,39,39,0,0,1,6,3.21,39,39,0,0,1,8.43,9.2" transform="translate(-54.19 -36.56)"/></g></svg>